# xmcd
# Track frame offsets:
# 150
# 12827
# 29704
# 49281
# 69683
# 87010
# 101262
# 117164
# 129841
# 144618
# 161195
#
# Disc length: 2407 seconds
# Revision: 0
# Processed by: cddbd v1.5.1PL2 Copyright (c) Steve Scherf et al.
# Submitted via: VisiTrax 2.10.0.248 - For more info visit www.synapsa.com
#
DISCID=9209650b
DTITLE=Susan Haynes - Crooked Little Heart
DYEAR=2006
DGENRE=Country
TTITLE0=Long Way To Memphis
TTITLE1=Bottle Rocket
TTITLE2=Not That Bad
TTITLE3=Crooked Little Heart
TTITLE4=I Like Who I Am With You
TTITLE5=Drinkin' In My Sunday Dress
TTITLE6=Being Gone
TTITLE7=I'd Rather Be In Love With You
TTITLE8=But You Are
TTITLE9=Damn This Tangled Mind
TTITLE10=The Road Behind Me
EXTD=
EXTT0=
EXTT1=
EXTT2=
EXTT3=
EXTT4=
EXTT5=
EXTT6=
EXTT7=
EXTT8=
EXTT9=
EXTT10=
PLAYORDER=
